<?xml version="1.0" encoding="iso-8859-1"?>
<!-- Generator: Adobe Illustrator 19.0.0, SVG Export Plug-In . SVG Version: 6.00 Build 0)  -->
<svg version="1.1" id="Layer_1" xmlns="http://www.w3.org/2000/svg" xmlns:xlink="http://www.w3.org/1999/xlink" x="0px" y="0px"
	 viewBox="0 0 496 496" style="enable-background:new 0 0 496 496;" xml:space="preserve">
<g>
	<g>
		<g>
			<polygon points="368,144 480,144 480,192 256,192 256,208 480,208 480,480 16,480 16,208 144,208 144,192 16,192 16,144 272,144 
				272,128 0,128 0,496 496,496 496,128 368,128 			"/>
			<rect x="32" y="160" width="16" height="16"/>
			<rect x="64" y="160" width="16" height="16"/>
			<rect x="96" y="160" width="16" height="16"/>
			<polygon points="240,240 288,240 288,416 48,416 48,240 144,240 144,224 32,224 32,432 304,432 304,224 240,224 			"/>
			<rect x="320" y="224" width="144" height="16"/>
			<rect x="320" y="256" width="144" height="16"/>
			<rect x="320" y="288" width="144" height="16"/>
			<rect x="320" y="320" width="144" height="16"/>
			<rect x="320" y="352" width="144" height="16"/>
			<rect x="320" y="384" width="144" height="16"/>
			<rect x="320" y="416" width="144" height="16"/>
			<rect x="32" y="448" width="400" height="16"/>
			<rect x="448" y="448" width="16" height="16"/>
			<path d="M213.352,192.336C207.672,187.208,200.232,184,192,184c-17.648,0-32,14.352-32,32c0,6.84,2.2,13.16,5.872,18.368
				l-51.72,103.44C110.944,336.72,107.568,336,104,336c-17.648,0-32,14.352-32,32s14.352,32,32,32s32-14.352,32-32
				c0-8.248-3.224-15.704-8.36-21.384l50.856-101.712C182.608,246.84,187.16,248,192,248c17.648,0,32-14.352,32-32
				c0-3.608-0.728-7.016-1.832-10.248l79.672-43.456C307,165.872,313.248,168,320,168c17.648,0,32-14.352,32-32
				c0-3.688-0.752-7.184-1.912-10.488l96.44-66.768C451.56,62.048,457.544,64,464,64c17.648,0,32-14.352,32-32S481.648,0,464,0
				s-32,14.352-32,32c0,5.344,1.44,10.304,3.768,14.736L341.2,112.208C335.536,107.16,328.16,104,320,104c-17.648,0-32,14.352-32,32
				c0,4.976,1.24,9.624,3.272,13.832L213.352,192.336z M104,384c-8.824,0-16-7.176-16-16c0-8.824,7.176-16,16-16s16,7.176,16,16
				C120,376.824,112.824,384,104,384z M192,232c-8.824,0-16-7.176-16-16c0-8.824,7.176-16,16-16c8.824,0,16,7.176,16,16
				C208,224.824,200.824,232,192,232z M464,16c8.824,0,16,7.176,16,16s-7.176,16-16,16c-8.824,0-16-7.176-16-16S455.176,16,464,16z
				 M320,120c8.824,0,16,7.176,16,16c0,8.824-7.176,16-16,16c-8.824,0-16-7.176-16-16C304,127.176,311.176,120,320,120z"/>
		</g>
	</g>
</g>
<g>
</g>
<g>
</g>
<g>
</g>
<g>
</g>
<g>
</g>
<g>
</g>
<g>
</g>
<g>
</g>
<g>
</g>
<g>
</g>
<g>
</g>
<g>
</g>
<g>
</g>
<g>
</g>
<g>
</g>
</svg>
